<svg xmlns="http://www.w3.org/2000/svg" xmlns:xlink="http://www.w3.org/1999/xlink" viewBox="0 0 100 125" version="1.1" x="0px" y="0px"><title>frown</title><desc>Created with Sketch.</desc><g stroke="none" stroke-width="1" fill="none" fill-rule="evenodd"><g fill="#000000"><path d="M91.272288,33.3422367 C85.576288,15.4532367 61.938288,0.860236651 43.583288,7.73423665 C41.791288,8.40523665 42.567288,11.3062367 44.380288,10.6272367 C60.249288,4.68523665 79.156288,16.0072367 86.657288,30.0432367 C90.593288,37.4092367 90.791288,47.0122367 90.220288,55.1582367 C89.598288,64.0212367 86.986288,72.7692367 81.209288,79.6622367 C75.479288,86.4992367 67.589288,89.2322367 58.962288,90.2042367 C50.834288,91.1212367 42.248288,91.4512367 34.434288,88.6642367 C19.205288,83.2332367 9.05528804,68.1052367 10.057288,51.9112367 C11.162288,34.0502367 24.872288,17.7302367 40.541288,10.2042367 C42.281288,9.36823665 40.761288,6.78123665 39.027288,7.61423665 C23.225288,15.2042367 9.59628804,31.3022367 7.31628804,49.0482367 C5.13828804,66.0012367 14.377288,82.7472367 29.831288,89.9872367 C38.197288,93.9072367 47.168288,94.2152367 56.240288,93.4612367 C65.235288,92.7132367 73.909288,90.8402367 80.714288,84.5312367 C93.782288,72.4152367 96.495288,49.7452367 91.272288,33.3422367"/><path d="M31.627288,34.7671367 C31.052288,34.1921367 30.080288,34.1921367 29.506288,34.7671367 L29.015288,35.2581367 C28.442288,35.8301367 28.442288,36.8061367 29.015288,37.3791367 C29.590288,37.9541367 30.562288,37.9541367 31.136288,37.3791367 L31.627288,36.8881367 C32.200288,36.3151367 32.200288,35.3401367 31.627288,34.7671367"/><path d="M62.458588,39.1588367 C63.243588,39.1588367 63.994588,38.4688367 63.958588,37.6588367 C63.922588,36.8458367 63.299588,36.1588367 62.458588,36.1588367 L62.213588,36.1588367 C61.428588,36.1588367 60.676588,36.8488367 60.713588,37.6588367 C60.749588,38.4718367 61.372588,39.1588367 62.213588,39.1588367 L62.458588,39.1588367 Z"/><path d="M47.842488,52.0722367 C42.531488,51.4122367 36.988488,53.7762367 33.820488,58.0982367 C30.017488,63.2872367 30.026488,70.0332367 30.484488,76.1612367 C30.627488,78.0752367 33.628488,78.0902367 33.484488,76.1612367 C32.813488,67.1842367 34.497488,54.5602367 46.404488,54.9522367 C57.793488,55.3282367 61.504488,68.4692367 59.729488,77.7242367 C59.367488,79.6102367 62.258488,80.4182367 62.622488,78.5212367 C64.694488,67.7182367 60.462488,53.6412367 47.842488,52.0722367"/></g></g></svg>