<svg xmlns="http://www.w3.org/2000/svg" xmlns:xlink="http://www.w3.org/1999/xlink" viewBox="0 0 100 125" version="1.1" x="0px" y="0px"><title>Oh</title><desc>Created with Sketch.</desc><g stroke="none" stroke-width="1" fill="none" fill-rule="evenodd"><g fill="#000000"><path d="M93.0902399,47.6458248 C90.3192399,27.7148248 72.2312399,11.4798248 53.5952399,6.0668248 C51.7372399,5.5268248 50.9442399,8.4208248 52.7972399,8.9588248 C67.5192399,13.2358248 80.9942399,24.1598248 87.3192399,38.2848248 C93.9822399,53.1638248 89.7522399,70.9608248 77.2892399,81.3888248 C70.7132399,86.8908248 62.6602399,89.3188248 54.2642399,90.2888248 C45.7152399,91.2748248 36.5972399,91.8198248 28.8202399,87.4868248 C14.2662399,79.3768248 9.01923985,60.9018248 9.07623985,45.2448248 C9.14423985,26.4598248 29.1862399,6.2448248 48.7022399,9.9168248 C50.5892399,10.2718248 51.3982399,7.3808248 49.5002399,7.0238248 C31.7862399,3.6918248 15.2092399,17.4108248 8.48923985,32.8208248 C4.63723985,41.6528248 5.90423985,52.1878248 7.95323985,61.3438248 C9.91323985,70.0978248 13.7982399,78.5778248 20.3242399,84.8688248 C26.6582399,90.9758248 34.5922399,93.8688248 43.3242399,93.9738248 C52.5012399,94.0838248 62.6172399,92.9618248 70.9732399,88.9778248 C86.4932399,81.5778248 95.4502399,64.6198248 93.0902399,47.6458248"/><path d="M26.7212399,38.2395248 C26.5872399,38.4275248 26.4522399,38.6155248 26.3182399,38.8045248 C25.8462399,39.4635248 26.2022399,40.4735248 26.8562399,40.8565248 C27.6092399,41.2975248 28.4362399,40.9795248 28.9082399,40.3185248 C29.0422399,40.1305248 29.1772399,39.9415248 29.3112399,39.7535248 C29.7832399,39.0945248 29.4272399,38.0835248 28.7732399,37.7015248 C28.0202399,37.2605248 27.1932399,37.5785248 26.7212399,38.2395248"/><path d="M59.9138399,36.9371248 C59.9948399,36.9241248 60.0748399,36.9101248 60.1558399,36.8971248 C60.9558399,36.7641248 61.4018399,35.7751248 61.2038399,35.0521248 C60.9708399,34.2031248 60.1608399,33.8701248 59.3578399,34.0041248 C59.2778399,34.0171248 59.1968399,34.0311248 59.1168399,34.0441248 C58.3168399,34.1771248 57.8698399,35.1661248 58.0688399,35.8891248 C58.3018399,36.7381248 59.1118399,37.0711248 59.9138399,36.9371248"/><path d="M54.9139399,78.2029248 C49.8259399,81.3759248 45.4489399,75.2349248 44.3979399,71.1429248 C43.9509399,69.4019248 43.8109399,67.5779248 43.8109399,65.7859248 C43.8109399,65.4739248 44.1529399,59.3959248 45.6469399,57.8139248 C53.2819399,57.1539248 62.3469399,73.5669248 54.9139399,78.2029248 M48.7109399,55.1889248 C48.6829399,55.1669248 48.6619399,55.1409248 48.6319399,55.1189248 C46.4449399,53.5279248 44.8399399,53.9019248 43.6719399,55.2429248 C43.4519399,55.3959248 43.3059399,55.6019248 43.2219399,55.8329248 C41.1859399,58.9049248 40.7319399,65.1279248 40.8539399,67.3369248 C41.2279399,74.0999248 44.8579399,82.4829248 52.9299399,81.8479248 C66.2829399,80.7979248 59.6819399,58.3639248 48.7109399,55.1889248"/></g></g></svg>