<svg xmlns="http://www.w3.org/2000/svg" width="32" height="32" id="bone"><path style="line-height:normal;text-indent:0;text-align:start;text-decoration-line:none;text-decoration-style:solid;text-decoration-color:#000;text-transform:none;block-progression:tb;white-space:normal;isolation:auto;mix-blend-mode:normal;solid-color:#000;solid-opacity:1" d="M22.139 4.035v.002a2.99 2.99 0 0 0-2.121.875 3.007 3.007 0 0 0 0 4.242l-2.094 2.094a.5.5 0 0 0-.028.027l-5.656 5.659a.5.5 0 0 0-.035.035l-2.086 2.086a3.01 3.01 0 0 0-4.244 0 3.007 3.007 0 0 0 0 4.242c.542.54 1.277.773 2.03.799.024.753.257 1.487.798 2.029a3.01 3.01 0 0 0 4.244 0 3.007 3.007 0 0 0 0-4.242l7.778-7.776a.5.5 0 0 0 .033-.037.5.5 0 0 0 .004-.006l2.084-2.084h.002a3.007 3.007 0 0 0 4.24 0 3.007 3.007 0 0 0 0-4.242c-.543-.54-1.276-.776-2.03-.8-.025-.753-.258-1.486-.798-2.028a2.99 2.99 0 0 0-2.121-.875zm0 .994c.51 0 1.021.197 1.414.59a2 2 0 0 1 .564 1.7.5.5 0 0 0 .567.566 1.999 1.999 0 0 1 1.697 3.39 1.992 1.992 0 0 1-2.828 0 .974.974 0 0 0-.569-.285.947.947 0 0 0-.808.248l-2.143 2.145a.5.5 0 0 0-.015.015l-5.657 5.655a.5.5 0 0 0-.04.043l-2.118 2.117a.949.949 0 0 0-.246.81c.04.238.124.41.283.569a1.992 1.992 0 0 1 0 2.828 2 2 0 0 1-3.393-1.7.5.5 0 0 0-.566-.568 2 2 0 0 1-1.699-.562 1.992 1.992 0 0 1 0-2.828 1.992 1.992 0 0 1 2.828 0 .962.962 0 0 0 .58.279c.233.037.56 0 .797-.24l2.133-2.135a.5.5 0 0 0 .02-.018l.007-.007 5.657-5.659 2.16-2.16c.238-.238.277-.564.24-.797a.958.958 0 0 0-.28-.578 1.992 1.992 0 0 1 0-2.828c.393-.393.904-.59 1.415-.59z" color="#000" enable-background="accumulate" font-family="sans-serif" font-weight="400" overflow="visible"></path></svg>